<svg width="1054" height="410" viewBox="0 0 1054 410" fill="none" xmlns="http://www.w3.org/2000/svg">
<path d="M163.333 27.2C161.067 28.1334 158.667 29.7334 157.867 30.8C156.933 31.8667 149.867 44.9334 142 60C134.133 75.0667 123.733 94.8 118.933 104C114 113.2 108.533 123.6 106.667 127.333L103.067 134L64.5333 134.667C20.5333 135.467 20.5333 135.467 15.7333 146.267C13.4667 151.333 13.0667 154.4 13.6 164.533C14 172.533 14.9333 178.133 16.5333 181.067C19.2 186.267 25.8667 190.667 30.9333 190.667C35.0667 190.667 35.2 190.933 38 208C40.8 224.8 59.6 327.2 62.1333 340C66.2667 360 74.5333 371.733 89.0666 377.6L96.6666 380.667L203.333 381.067C271.867 381.333 312.267 380.933 316.267 380C330.933 376.933 343.067 368.267 348.667 356.8C350.8 352.533 353.467 342.667 355.333 332.533C357.067 323.067 363.333 288.667 369.333 256C375.2 223.333 380.267 195.333 380.667 193.867C381.067 191.733 382.667 190.8 386.4 190.133C398 188.4 403.867 178.933 404 162.133C404 154.133 403.333 150.133 401.333 145.867C396.133 135.333 396.4 135.467 352.133 134.667L312.933 134L308.8 126C285.2 80.1333 260 33.6 256.933 30.5334C246.667 20.1333 227.733 28.1334 229.867 42.1334C230.133 44.4 238.8 61.8667 249.2 81.0667C265.867 112.133 275.733 130.8 277.067 133.6C277.333 134.267 246.667 134.667 208.8 134.667C170.933 134.667 140 134.267 140 133.733C140 133.333 150.533 112.8 163.467 88.2667C184.4 48.6667 186.933 43.2 186.267 39.0667C185.333 33.3334 182.133 29.6 176.4 27.2C171.067 24.9333 168.533 24.9333 163.333 27.2ZM350.667 192.133C350.667 192.8 350 197.6 349.2 202.8L347.6 212H209.2C132.933 212 70.2667 212 69.7333 212C68.6667 212.133 65.4667 198.667 65.3333 193.6V190.667H208C307.333 190.667 350.667 191.067 350.667 192.133ZM278.533 248.667C284.8 251.867 286 259.333 281.067 264C278.267 266.667 276.8 266.667 208.533 266.667H138.8L136.133 263.2C132.4 258.4 132.667 255.2 137.2 250.533L141.067 246.667H208C264 246.667 275.467 246.933 278.533 248.667ZM257.867 295.867C262.133 299.867 262.267 304.8 258.4 308.933L255.6 312H209.067H162.533L159.333 308.667C154.133 303.6 155.2 297.333 162 293.467C163.867 292.533 178.533 292.133 209.6 292.4L254.4 292.667L257.867 295.867Z" fill="#0038A8"/>
<path d="M509.733 34C481.733 40.1333 460.133 62.4 454 91.6C451.467 103.2 451.467 122.133 454 134C460.133 162.933 482 185.467 510 191.333C529.2 195.333 551.6 192.667 567.067 184.4C581.067 176.933 594.267 160.667 598.133 146.4C601.467 133.867 602.133 134.533 584.4 134.933L568.933 135.333L567.333 139.867C564.933 146.933 557.6 154.667 549.467 158.533C543.2 161.467 540.133 162 530 162C519.867 162 516.8 161.467 510.667 158.533C496.667 152 488.933 140.667 486.4 122.667C482.667 97.3333 492.933 73.3333 511.067 65.2C520.8 60.6666 539.067 60.8 548.267 65.2C555.733 68.8 564.4 77.7333 566.8 84.4L568.533 89.3333H583.6C600.933 89.3333 600.4 89.8666 596.133 76.1333C586 43.7333 548.8 25.4666 509.733 34Z" fill="#0038A8"/>
<path d="M860.533 45.2C860.267 45.4667 860 52.5333 860 60.9333V76H851.333H842.667V88.5333V101.067L851.2 100.4L859.867 99.6L860.267 135.467C860.667 169.333 860.8 171.6 863.6 177.333C869.2 188.667 884.8 194.667 904.4 192.8C920.933 191.333 920 192 920 179.333C920 165.333 919.467 163.733 915.067 165.467C913.333 166.133 908.667 166.667 904.8 166.667C898.933 166.667 897.2 166.133 894.533 163.2C891.333 159.867 891.333 159.467 890.933 130.133L890.533 100.4L904.933 100.533L919.333 100.667L919.733 88.2666L920.133 76H905.333H890.667V60.2666V44.5333L875.867 44.6667C867.733 44.6667 860.933 44.9333 860.533 45.2Z" fill="#0038A8"/>
<path d="M654.8 75.3333C639.733 79.6 626.4 90.1333 619.867 102.933C612.667 117.067 611.467 142.4 617.2 157.6C622.667 171.733 635.067 184 649.467 189.467C663.6 194.933 686.8 194 699.067 187.733C709.867 182.267 719.733 170.533 723.2 158.933C724.133 156 724.133 156 709.467 156C701.333 156 694.667 156.533 694.667 157.2C694.667 159.867 686 166.533 680.667 168C664.133 172.667 645.333 160 645.333 144.267V140H685.333H725.333V131.333C725.333 106 712.4 84.9333 692.267 77.3333C682.267 73.4667 664.667 72.5333 654.8 75.3333ZM682.667 100.267C688.8 103.333 693.467 109.733 695.333 117.6L696.267 121.333H670.8C642.533 121.333 643.467 121.733 647.333 112.4C650.133 105.733 652.933 102.8 659.333 99.8667C666.667 96.5333 675.467 96.6667 682.667 100.267Z" fill="#0038A8"/>
<path d="M769.6 75.3333C735.733 84.8 729.467 124.133 759.6 137.733C763.867 139.6 773.733 142.667 781.733 144.533C798.133 148.4 803.467 150.8 804.667 154.8C807.333 163.067 800 169.333 787.333 169.333C777.467 169.333 770.667 166.267 768 160.4L766 156H751.733H737.467L738.133 160.267C740.667 174.533 750.533 185.333 765.333 190.267C775.733 193.733 799.333 193.6 809.2 190.133C817.867 187.2 827.467 178.8 830.8 171.333C834.267 163.867 834.267 148.267 830.667 141.467C825.333 130.8 818 126.667 794.667 121.2C775.6 116.667 770.667 114 770.667 108C770.667 101.6 774.533 98.4 782.933 97.6C793.067 96.8 799.6 99.2 802.933 104.8L805.6 109.333H818.933H832.267L831.333 104.267C827.867 84.9333 813.733 74.9333 788.667 73.8667C780.667 73.4667 774.267 74 769.6 75.3333Z" fill="#0038A8"/>
<path d="M968.533 75.0667C950.667 79.7333 937.333 93.8667 937.333 108.133V112H950.4L963.333 111.867L966 106.267C968.133 101.867 969.733 100.267 974 98.9333C980.667 96.6667 993.067 97.6 997.733 100.533C1001.6 103.2 1004.4 109.067 1003.73 113.467C1003.2 117.867 998.933 119.467 981.2 121.867C961.6 124.533 953.867 126.933 945.733 132.4C929.867 143.2 927.2 166.533 940.133 180.667C954.267 196 983.467 197.733 998.933 184C1002.4 181.067 1005.47 178.667 1005.87 178.667C1006.27 178.667 1006.67 181.333 1006.67 184.667V190.667H1020.67H1034.67V151.333C1034.67 128 1034.13 109.333 1033.2 105.067C1030.27 91.2 1021.47 81.6 1007.2 76.6667C998.533 73.7333 977.333 72.8 968.533 75.0667ZM1004.8 147.067C1003.73 157.333 1000.8 162.4 993.333 166.133C986.133 169.867 973.867 170.4 968 167.333C960.133 163.2 960.667 151.2 969.067 146.267C971.333 144.933 979.6 142.667 987.467 141.2C995.333 139.867 1002 138.4 1002.4 138C1004.53 136 1005.6 140 1004.8 147.067Z" fill="#0038A8"/>
<path d="M516.933 218.133C516.4 218.667 516 243.867 516.133 274.133C516.133 335.2 516.133 335.6 507.467 341.733C504.133 344 501.467 344.667 494.4 344.667C483.6 344.667 479.467 342.133 474.933 332.8L471.867 326.533L457.733 326.8L443.733 327.2L444.4 334.667C446.267 355.2 460.267 369.6 482 373.467C516 379.333 542.533 362 546.8 330.933C547.467 326 547.867 298.533 547.733 270L547.333 218L532.667 217.6C524.533 217.333 517.467 217.6 516.933 218.133Z" fill="#00A651"/>
<path d="M817.333 243.333V258.667H808.667H800V270.667V282.667H808.667H817.333V315.067C817.333 357.2 819.2 364.133 832.4 370.933C839.6 374.533 861.2 375.733 871.333 372.933L878 371.2L877.733 364.533C877.6 360.933 877.467 355.467 877.467 352.267L877.333 346.533L869.467 347.467C865.067 347.867 859.333 347.867 856.8 347.467C848.667 345.867 848 342.933 848 310.667V282.667H862H876V270.667V258.667H862H848.133L847.733 243.6L847.333 228.667L832.4 228.267L817.333 227.867V243.333Z" fill="#00A651"/>
<path d="M729.867 257.333C709.733 261.6 698.667 273.6 698.667 291.2C698.667 301.6 700.667 307.067 706.4 312.933C712.4 318.933 720 322.133 739.067 326.8C758.4 331.6 762.667 334 762.667 340.667C762.667 344 761.6 346 758.4 348.667C754.4 352 753.467 352.267 743.867 351.733C732 351.2 726.8 348.4 724.8 341.467C724 338.533 722.933 337.467 721.733 338C720.667 338.4 714.4 338.667 707.733 338.667H695.6L696.533 344.933C699.067 364 716.533 374.667 744.8 374.667C774.533 374.667 792 361.6 792 339.2C792 332.8 791.2 329.333 788.267 323.867C783.067 313.867 774.933 309.2 754.8 304.533C736.133 300.4 728.267 296.933 727.2 292.667C725.067 284 731.733 279.467 745.467 280.267C755.333 280.8 760.267 283.733 761.867 290C762.667 292.933 762.933 293.067 775.6 292.4C782.8 292.133 788.933 291.6 789.2 291.2C790.4 290 786.533 277.867 783.2 273.067C779.467 267.2 771.2 261.6 762.8 259.067C755.067 256.8 736.933 255.733 729.867 257.333Z" fill="#00A651"/>
<path d="M935.333 256.933C914.267 259.733 898.667 273.467 897.067 290.667L896.667 295.333L909.2 296C916 296.4 922.133 296.4 922.667 296C923.2 295.6 924.667 293.067 925.733 290.267C932.4 274.4 964.133 278.267 964 294.933C964 301.333 960.933 302.533 936.533 305.867C912.267 309.2 901.6 314.667 895.333 327.067C889.067 339.867 891.2 354 901.067 363.867C908.933 371.6 917.6 374.667 931.867 374.667C944.4 374.667 952.533 372.133 959.733 365.867C962.667 363.467 965.467 361.333 965.867 361.333C966.267 361.333 966.667 363.733 966.667 366.667V372H980H993.333V329.467C993.333 283.6 992.933 280.533 986 271.467C978 260.933 955.067 254.267 935.333 256.933ZM965.333 326.4C965.333 340.4 960.133 348 948.267 351.467C934.667 355.467 922.667 350.667 922.667 341.467C922.667 330.933 928.933 326.533 948.267 323.2C955.067 322 960.933 320.8 961.2 320.533C961.467 320.267 962.533 320 963.6 320C964.8 320 965.333 322 965.333 326.4Z" fill="#00A651"/>
<path d="M570.933 301.6C571.467 343.2 571.6 344.933 574.533 351.6C578 359.467 586.667 368.133 594.267 371.467C597.067 372.533 604.133 373.867 610.133 374.267C624.933 375.333 634 372.533 642.267 364.667C648.933 358.133 649.6 357.867 649.2 360.4C649.067 361.2 649.067 364.267 649.2 366.933L649.333 372H664H678.667V315.333V258.667H663.333H648V291.467C648 310.4 647.333 326.533 646.533 329.867C644 340.267 635.333 346.667 623.6 347.067C614.533 347.467 608.667 344.8 605.067 338.8C602.133 334.133 602 332.8 601.6 296.267L601.2 258.667H585.733H570.4L570.933 301.6Z" fill="#00A651"/>
</svg>
