<svg width="391" height="356" viewBox="0 0 391 356" fill="none" xmlns="http://www.w3.org/2000/svg">
<path d="M149.944 1.69999C147.677 2.63333 145.277 4.23333 144.477 5.29999C143.544 6.36666 136.477 19.4333 128.61 34.5C120.744 49.5667 110.344 69.3 105.544 78.5C100.61 87.7 95.1438 98.1 93.2771 101.833L89.6771 108.5L51.1438 109.167C7.14379 109.967 7.14379 109.967 2.34379 120.767C0.0771278 125.833 -0.322872 128.9 0.210461 139.033C0.610461 147.033 1.54379 152.633 3.14379 155.567C5.81046 160.767 12.4771 165.167 17.5438 165.167C21.6771 165.167 21.8105 165.433 24.6105 182.5C27.4105 199.3 46.2105 301.7 48.7438 314.5C52.8771 334.5 61.1438 346.233 75.6771 352.1L83.2771 355.167L189.944 355.567C258.477 355.833 298.877 355.433 302.877 354.5C317.544 351.433 329.677 342.767 335.277 331.3C337.41 327.033 340.077 317.167 341.944 307.033C343.677 297.567 349.944 263.167 355.944 230.5C361.81 197.833 366.877 169.833 367.277 168.367C367.677 166.233 369.277 165.3 373.01 164.633C384.61 162.9 390.477 153.433 390.61 136.633C390.61 128.633 389.944 124.633 387.944 120.367C382.744 109.833 383.01 109.967 338.744 109.167L299.544 108.5L295.41 100.5C271.81 54.6333 246.61 8.09999 243.544 5.03333C233.277 -5.36667 214.344 2.63333 216.477 16.6333C216.744 18.9 225.41 36.3667 235.81 55.5667C252.477 86.6333 262.344 105.3 263.677 108.1C263.944 108.767 233.277 109.167 195.41 109.167C157.544 109.167 126.61 108.767 126.61 108.233C126.61 107.833 137.144 87.3 150.077 62.7667C171.01 23.1667 173.544 17.7 172.877 13.5667C171.944 7.83333 168.744 4.09999 163.01 1.69999C157.677 -0.566673 155.144 -0.566673 149.944 1.69999ZM337.277 166.633C337.277 167.3 336.61 172.1 335.81 177.3L334.21 186.5H195.81C119.544 186.5 56.8771 186.5 56.3438 186.5C55.2771 186.633 52.0771 173.167 51.9438 168.1V165.167H194.61C293.944 165.167 337.277 165.567 337.277 166.633ZM265.144 223.167C271.41 226.367 272.61 233.833 267.677 238.5C264.877 241.167 263.41 241.167 195.144 241.167H125.41L122.744 237.7C119.01 232.9 119.277 229.7 123.81 225.033L127.677 221.167H194.61C250.61 221.167 262.077 221.433 265.144 223.167ZM244.477 270.367C248.744 274.367 248.877 279.3 245.01 283.433L242.21 286.5H195.677H149.144L145.944 283.167C140.744 278.1 141.81 271.833 148.61 267.967C150.477 267.033 165.144 266.633 196.21 266.9L241.01 267.167L244.477 270.367Z" fill="white"/>
</svg>
